<svg version="1" xmlns="http://www.w3.org/2000/svg" width="800" height="800" viewBox="0 0 600.000000 600.000000"><path d="M111 120.2c0 26.7.1 28.8 1.8 28.9.9 0 23.8 0 50.8.1h49.1l-.2 112.7c-.1 80.2-.5 114.9-1.4 120.6-6.2 42.5-21.4 61.7-52.1 65.9-4.9.7-22.3.9-25.5.2-1.1-.2-5.1-.9-9-1.6-17.4-3.2-31.1-13.9-36.8-28.7l-2.2-5.8-27.5.2c-15.1.1-29.9.2-32.8.2l-5.3.1.6 5.2c1 8.6 1.5 10.9 3.5 19 9.5 37 36.2 63.1 75.1 73.2 13 3.4 20.5 4.1 41.4 4.1 22.9 0 31.8-.9 49-5 41.2-9.8 67.7-32.1 82.6-69.6 6-15.4 11.1-36.9 12.4-53.4.4-4.4.9-8.2 1.2-8.5.8-.8 0 89.5-.8 97-1.3 10.5-4.2 17-9.9 22.4-6.5 6.1-13.1 7.9-30.7 8.5-2.1.1-2.3.6-2.3 5.9v5.7h163V506l-3.2-.1c-18.5-.4-28.6-4.3-34.7-13.5-5.6-8.5-5.9-13.2-6-96.2L361 323h20.8l3.7 7.2c2.1 4 7.6 14.5 12.3 23.3 10.9 20.6 16.6 31.4 23.7 45 3.2 6 7 13.2 8.5 16 1.5 2.7 5 9.3 7.7 14.5 2.8 5.2 7.6 14.4 10.8 20.5 3.2 6 7.2 13.7 9 17 1.8 3.3 6.4 12.1 10.3 19.5 3.9 7.4 9.3 17.5 11.9 22.5l4.8 9h100l.3-5.4c.3-5.8-.5-7.1-4.6-7.1-3.3 0-10.4-3.6-15.1-7.6-6.5-5.6-15.1-19.9-35.6-58.9-3.2-6.1-7.6-14.4-9.8-18.5-2.2-4.1-6-11.3-8.4-16-2.5-4.7-6.2-11.7-8.3-15.5-2-3.9-5.8-10.8-8.2-15.5-2.5-4.7-6.3-11.9-8.5-16s-6.6-12.5-9.8-18.5c-3.2-6.1-7.1-13.4-8.7-16.2-1.6-2.9-2.7-5.7-2.4-6.2.4-.5 2.3-1.5 4.4-2.2 11.3-3.6 25.9-12.9 35.5-22.6 12.8-12.7 23.9-34.7 27.1-53.8.3-1.7 1-5.2 1.5-7.8 1.3-7.2 1.1-34.1-.4-43.8-1.4-9.1-4.7-22.3-6.9-27.4-9.2-20.9-17.8-33.1-31.4-44.5-3.3-2.7-6.2-5-6.5-5-.3 0-2.7-1.3-5.4-3-9.8-6-32.5-11.6-55.6-13.7-3.9-.4-76.8-.7-161.9-.8H111v28.7zm174.7 256c-.3.8-.6.5-.6-.6-.1-1.1.2-1.7.5-1.3.3.3.4 1.2.1 1.9z"/></svg>